<?xml version="1.0" encoding="utf-8"?>
<!-- Generator: Adobe Illustrator 20.1.0, SVG Export Plug-In . SVG Version: 6.00 Build 0)  -->
<svg version="1.1" id="Layer_1" xmlns="http://www.w3.org/2000/svg" xmlns:xlink="http://www.w3.org/1999/xlink" x="0px" y="0px"
	 viewBox="0 0 708.7 850.4" style="enable-background:new 0 0 708.7 850.4;" xml:space="preserve">
<style type="text/css">
	.st0{fill:none;}
	.st1{stroke:#FFFFFF;stroke-miterlimit:10;}
	.st2{fill:#ED1C24;}
</style>
<rect x="155" y="342.4" class="st0" width="353.1" height="145.8"/>
<g>
	<path class="st1" d="M553.1,463.9C553.1,463.9,553.1,463.9,553.1,463.9c-1.1,4.5-7.2,6.9-14.5,6.3c0.2-1,0-2-0.5-2.8
		c0.8-1,1.1-1.9,0.8-2.1c-0.3-0.2-1.1,0.2-1.9,0.9c-0.5-0.4-1.1-0.7-1.8-0.9c-0.8-0.2-1.6-0.2-2.4,0c-0.4-1.2-1-1.9-1.4-1.9
		c-0.4,0.1-0.5,1.2-0.2,2.6c-0.7,0.5-1.2,1.2-1.4,2.1c-6.8-2.8-11.1-7.8-10.1-12.2c0,0,0,0,0,0c-9.8,0.4-17,3.6-18.3,8.9
		c-0.3,1.2-0.3,2.5,0.1,3.8c1.9-5.2,4.7-8.6,7-8c2.6,0.6,3.5,6.3,2.2,13c1.7-2.8,4-4.5,6-4c3.1,0.7,4.4,6.2,3,12.3
		c-0.1,0.6-0.3,1.2-0.5,1.8c0,0,0.1,0,0.1,0.1c1.7-5.4,5.1-9,8.1-8.3c3.1,0.7,4.5,6,3.3,12c0.2,0,0.4,0.1,0.6,0.1
		c1.7-5.6,5.2-9.4,8.2-8.7c1.8,0.4,3,2.3,3.5,5c1.8-4.2,4.6-6.8,7.1-6.2c2.8,0.7,4.2,5.3,3.3,10.7c0.1,0,0.2,0,0.2,0
		c0.1-1,0.3-2.1,0.6-3.2c1.7-7.1,5.3-12.2,8.1-11.6c1.9,0.4,2.9,3.5,2.8,7.5c0.1-0.3,0.2-0.6,0.3-0.9
		C566.7,474.8,561.7,468.7,553.1,463.9z"/>
	<path class="st1" d="M503.7,438.4c1.9,0.4,2.7,4,2,8.1c0.1,0,0.2,0,0.4,0.1c1-3.9,3.2-6.7,5-6.3c1.1,0.2,1.8,1.5,2.1,3.3
		c1.1-3,2.8-4.9,4.3-4.6c1.7,0.4,2.5,3.5,2,7.3c0,0,0.1,0,0.1,0c0.1-0.7,0.2-1.5,0.4-2.2c1-4.9,3.2-8.7,4.9-8.3
		c1.1,0.2,1.7,2.3,1.7,5.1c0.1-0.2,0.1-0.4,0.2-0.6c0.8-3.7-2.2-7.7-7.4-10.7c0,0,0,0,0,0c-0.6,3.1-4.3,5.1-8.8,4.9
		c0.1-0.7,0-1.4-0.3-2c0.5-0.7,0.7-1.4,0.5-1.5c-0.2-0.1-0.6,0.2-1.2,0.7c-0.3-0.3-0.7-0.4-1.1-0.5c-0.5-0.1-1-0.1-1.4,0.1
		c-0.3-0.8-0.6-1.3-0.8-1.2c-0.3,0.1-0.3,0.9-0.1,1.8c-0.4,0.4-0.7,0.9-0.8,1.5c-4.1-1.7-6.7-4.9-6.1-8c0,0,0,0,0,0
		c-5.9,0.7-10.3,3.1-11,6.9c-0.2,0.9-0.2,1.8,0.1,2.6c1.1-3.6,2.9-6.1,4.2-5.8c1.6,0.3,2.1,4.2,1.3,8.9c1-2,2.4-3.2,3.6-3
		c1.9,0.4,2.7,4.1,1.8,8.4c-0.1,0.4-0.2,0.9-0.3,1.3c0,0,0.1,0,0.1,0C499.9,440.7,501.9,438,503.7,438.4z"/>
	<path class="st1" d="M465.9,435.8c-0.2-0.3-0.4-0.5-0.6-0.7c-3.5-4.2-11.4-3.7-20.3,0.4c0,0,0,0,0,0c3,3.5,1.4,9.9-3.4,15.5
		c-0.7-0.8-1.6-1.2-2.6-1.3c-0.4-1.2-0.9-2-1.2-1.9c-0.4,0.1-0.5,1-0.4,2.1c-0.6,0.2-1.2,0.5-1.8,1c-0.6,0.5-1.1,1.2-1.4,1.9
		c-1.2-0.3-2.2-0.3-2.3,0c-0.2,0.4,0.7,1.1,2,1.7c0,0.8,0.3,1.7,0.9,2.3c-6.3,3.9-12.9,4.4-15.8,0.9c0,0,0,0,0,0
		c-5.4,8.1-7.1,15.8-3.6,20c0.8,1,1.9,1.7,3.1,2.2c-3.1-4.6-4.1-8.9-2.4-10.4c2.1-1.8,7.2,0.9,11.8,5.9c-1.3-3.1-1.3-5.8,0.3-7.2
		c2.4-2.1,7.6,0.1,11.7,4.8c0.4,0.5,0.8,1,1.2,1.5c0,0,0.1,0,0.1-0.1c-3.4-4.6-4.3-9.5-2-11.4c2.4-2.1,7.5-0.1,11.6,4.4
		c0.2-0.1,0.3-0.3,0.4-0.4c-3.5-4.6-4.5-9.7-2.2-11.7c1.4-1.2,3.6-1,6.1,0.1c-2.3-3.9-2.8-7.8-0.8-9.4c2.2-1.9,6.8-0.2,10.6,3.7
		c0-0.1,0.1-0.1,0.1-0.2c-0.8-0.7-1.5-1.5-2.2-2.4c-4.7-5.5-6.8-11.5-4.6-13.3C459.6,432.3,462.7,433.3,465.9,435.8z"/>
</g>
<g>
	<path d="M196.4,398.1l-0.1-9.9l-0.1-4.4c0-1.2,0.1-1.9,0.3-2.3c0.2-0.4,0.6-0.6,1.2-0.6c0.9,0,1.4,0.7,1.4,2.1l0,2.4l-0.1,7.8
		l-0.1,12.6l0.1,13.1l0.1,9.2c0,0.8-0.1,1.4-0.3,1.7c-0.2,0.3-0.5,0.5-1.1,0.5c-0.5,0-0.9-0.2-1.1-0.5c-0.2-0.3-0.3-0.9-0.3-1.8l0-3
		l0.1-17.6v-6.5l-1.3,0l-6.9-0.2l-15.1,0.2l0,9.7l0.2,19.1h-21.6L152,399l-0.1-8.1l0-7.4l-0.1-2h21.6l0,1.8l-0.2,14.7
		c2.4,0.1,6.2,0.2,11.4,0.2C189.3,398.3,193.3,398.2,196.4,398.1z"/>
	<path d="M231.4,406.1v-4.3c0-3-0.1-4.8-0.1-5.5c-0.1-0.7-0.3-1.3-0.6-1.8c-0.8-1.3-2.8-2-5.9-2c-4.8,0-8.5,1.5-11.1,4.5
		c-1.1,1.2-1.9,1.8-2.7,1.8c-0.5,0-1-0.2-1.4-0.6c-0.4-0.4-0.6-0.8-0.6-1.3c0-1.5,1.7-3,5.2-4.6c3.3-1.5,7.6-2.3,12.9-2.3
		c8.7,0,14.8,1.3,18.4,3.9c1.5,1.1,2.6,2.4,3,3.9c0.5,1.4,0.7,3.9,0.7,7.6v14c-0.1,2.6,0,4.5,0.2,5.8s0.8,2.7,1.7,4.2h-19.7v-3.7
		c-2.2,1.5-4.3,2.6-6.4,3.3c-2.1,0.8-4.2,1.1-6.3,1.1c-3.5,0-6.6-1-9.3-3.1c-3.5-2.7-5.3-6.1-5.3-10.4c0-3.8,1.4-6.8,4.3-9.1
		c3.3-2.7,7.5-4.1,12.4-4.1c2,0,3.8,0.2,5.4,0.5C227.6,404.5,229.4,405.1,231.4,406.1z M231.4,408.6c-3-1.5-5.2-2.2-6.9-2.2
		c-1.4,0-2.3,0.5-2.7,1.6c-0.2,0.6-0.4,2.3-0.4,5.1v8.4c0,1.9,0.1,3,0.2,3.4c0.2,1.1,1,1.6,2.4,1.6c1.1,0,2.3-0.3,3.6-1
		c1.3-0.6,2.5-1.5,3.6-2.5L231.4,408.6z"/>
	<path d="M275.1,391.1v4.9c2.7-1.9,5.4-3.4,8.1-4.4c2.6-1,5.2-1.5,7.7-1.5c3.3,0,6.1,0.8,8.4,2.3c1.7,1.1,2.9,2.6,3.5,4.3
		c0.6,1.7,0.9,4.5,0.9,8.3l-0.1,16.3l0.1,8.2h-17.9l0.1-9.8l0.1-7.2l0-10.8c0-2.5-0.1-4-0.1-4.5c0-0.5-0.1-0.9-0.3-1.3
		c-0.4-0.8-1.2-1.1-2.4-1.1c-1.1,0-2.4,0.3-3.7,1c-1.3,0.7-2.8,1.6-4.3,3l0,1.4l-0.1,9.9l-0.1,7.6L275,428l0,1.5h-18l0.1-13.8
		l0.1-9.1l-0.1-7.9l-0.1-7.6H275.1z"/>
	<path d="M310.8,423c0.5,0,1.1,0.4,1.8,1.1c1.2,1.1,2.8,2.1,5,2.8c2.2,0.8,4.2,1.2,6,1.2c0.9,0,1.5-0.1,2-0.4
		c0.4-0.3,0.7-0.7,0.7-1.3c0-0.6-0.3-1.2-0.9-2s-1.9-2.3-4-4.5c-5-5.4-8.3-9.2-9.8-11.4c-1.5-2.2-2.2-4.3-2.2-6.3
		c0-1.8,0.5-3.4,1.5-5c1-1.6,2.4-3,4.3-4.1c3-1.9,6.5-2.8,10.4-2.8c2.9,0,5.9,0.6,9.1,1.8c2.5,1,3.8,2,3.8,3.1
		c0,0.4-0.1,0.7-0.4,0.9c-0.3,0.3-0.6,0.4-1,0.4c-0.4,0-1.3-0.4-2.5-1.3c-2.5-1.8-5.2-2.7-8.1-2.7c-1,0-1.8,0.2-2.3,0.5
		c-0.5,0.3-0.8,0.8-0.8,1.5c0,0.8,0.5,1.8,1.5,3c1,1.2,2.9,3.3,5.9,6.2c2.9,2.8,4.8,4.7,5.5,5.6c0.8,0.9,1.5,1.9,2.3,3
		c1.2,2,1.9,4.1,1.9,6.4c0,3.6-1.7,6.5-5.2,8.8c-2.9,1.9-6.4,2.8-10.5,2.8c-4.6,0-8.8-1-12.3-3.1c-1.1-0.6-1.8-1.1-2.2-1.5
		c-0.4-0.4-0.6-0.8-0.6-1.3C309.4,423.5,309.8,423,310.8,423z"/>
	<path d="M368.3,461.5c3.7,5.3,8.1,10.7,13.2,16h-24.6c-1.1-1-2.3-2.1-3.4-3.3c-3.4,2.7-7.1,4.1-11.2,4.1c-2,0-3.9-0.4-5.8-1.1
		s-3.3-1.7-4.4-3c-1.8-2.1-2.7-4.6-2.7-7.6c0-2.7,0.8-5.1,2.3-7.2c1.5-2.1,4-4.1,7.3-5.9c-1.6-3-2.6-5.3-3.2-7
		c-0.6-1.7-0.9-3.3-0.9-4.9c0-3.7,1.3-6.7,4-9c3.3-2.9,7.8-4.3,13.5-4.3c4.7,0,8.3,1.1,10.8,3.3c1.7,1.5,2.6,3.4,2.6,5.7
		c0,3.8-2.5,6.9-7.5,9.4c1.3,2.3,4.1,6.7,8.5,13c5.4-5.3,9.5-8,12.3-8c1.2,0,1.8,0.5,1.8,1.6c0,0.5-0.1,0.9-0.4,1.1
		c-0.3,0.2-1,0.3-2.2,0.4c-1.1,0.1-2.5,0.7-3.9,1.7C372.9,457.4,370.9,459.1,368.3,461.5z M351.8,472.4c-2.2-2.7-4-5-5.4-7.1
		c-1.4-2.1-3.5-5.3-6.2-9.8c-3.1,1.8-5.2,3.6-6.5,5.2c-1.2,1.6-1.9,3.6-1.9,5.8c0,2.6,0.8,4.8,2.4,6.4c0.9,1,2.1,1.7,3.6,2.3
		s3,0.8,4.5,0.8C345.7,476,348.9,474.8,351.8,472.4z M357,444.7c4.3-2,6.4-4.4,6.4-7.3c0-2.1-1-3.8-2.9-5c-2-1.2-4.7-1.8-8.3-1.8
		c-0.7,0-1.2,0-1.7,0.1C351.4,434.4,353.6,439,357,444.7z"/>
	<path d="M416.7,501.3c-0.1,7-2.4,12.8-6.7,17.4c-2.4,2.6-5.3,4.6-8.6,6.1s-6.8,2.2-10.3,2.2c-3.1,0-6.1-0.6-9.1-1.8s-5.7-2.8-8-4.9
		c-3-2.7-5.2-6-6.6-9.8c-1.1-3-1.7-6.1-1.7-9.1c0-5.6,1.7-10.6,5.2-15.2c2.4-3.2,5.3-5.6,8.9-7.4s7.3-2.7,11.3-2.7
		c6.9,0,12.9,2.4,17.9,7.1c2.2,2.1,3.3,3.6,3.3,4.5c0,0.3-0.1,0.6-0.4,0.8s-0.5,0.3-0.9,0.3c-0.5,0-1.1-0.4-1.7-1.2
		c-4.7-6.3-10.7-9.4-18.1-9.4c-0.9,0-1.8,0.1-2.7,0.2l-0.2,25l0.2,21.2c0.9,0.2,1.8,0.2,2.7,0.2c2.6,0,5.2-0.4,7.7-1.3
		c6.3-2.2,10.8-6.3,13.5-12.3c1.2-2.5,1.9-5.1,2.1-7.7H396c-1.6,0-2.6-0.1-2.9-0.2s-0.5-0.4-0.5-0.9c0-0.8,0.6-1.1,1.7-1.1l2.1,0
		H416.7z"/>
	<path d="M440.4,498l-0.1,13.5l0.1,14h-18.1l0-1.9l0-7.2l0.1-12.9l-0.2-14.3l0-2h18v7.2c2.7-2.9,4.6-4.7,5.6-5.4
		c2.4-1.7,4.7-2.6,6.9-2.6c1.3,0,2.4,0.3,3.2,0.8s1.3,1.3,1.3,2.1c0,0.7-0.3,1.2-0.8,1.7c-0.5,0.4-1.2,0.7-1.9,0.7
		c-0.5,0-1-0.1-1.6-0.4c-1-0.5-1.9-0.7-2.6-0.7c-1.7,0-3.3,0.6-4.9,1.7C444.1,493.4,442.3,495.3,440.4,498z"/>
	<path d="M472.1,507.4v10.9c0,2.1,0.1,3.4,0.4,4c0.5,1.1,1.7,1.6,3.5,1.6c2.7,0,5.4-0.7,8.1-2.2s5-3.5,6.9-6.2
		c0.6-0.9,1.1-1.4,1.4-1.7s0.6-0.4,0.9-0.4c0.4,0,0.7,0.1,1,0.4s0.4,0.7,0.4,1.1c0,1-0.8,2.3-2.4,4c-2.1,2.1-4.6,3.9-7.7,5.2
		s-6,2-8.9,2c-5,0-9.4-1.7-13.2-5c-2.2-2-3.9-4.4-5.1-7.3c-1.1-2.5-1.6-5.1-1.6-7.6c0-2.4,0.5-4.9,1.4-7.3s2.2-4.6,3.9-6.3
		c1.9-2.1,4.1-3.7,6.8-4.9c2.6-1.1,5.2-1.7,8-1.7c4.3,0,8.3,1.3,11.8,3.8c5.5,4,8.2,9.8,8.2,17.3h-8.2l-10.5,0L472.1,507.4z
		 M481.1,505.1v-10.2c0-2.2-0.1-3.5-0.1-3.9s-0.2-0.8-0.5-1.2c-0.7-0.9-2-1.4-4-1.4c-2.1,0-3.4,0.5-3.9,1.6
		c-0.3,0.6-0.5,2.3-0.5,4.9v10.2l4.3,0.1L481.1,505.1z"/>
	<path d="M519.6,474.7l-0.4,11.4l0,1.1c2,0,3.9-0.1,5.6-0.2c0.3,0,0.5,0,0.7,0c1,0,1.5,0.5,1.5,1.4c0,0.9-0.5,1.3-1.6,1.3
		c-0.3,0-0.7,0-1.2-0.1c-1.9-0.1-3.2-0.2-4-0.2h-1l0,6.8l0.1,13.7l0.1,7.3c0,1.7,0.1,2.9,0.4,3.6s0.7,1,1.3,1c0.8,0,1.8-0.5,2.7-1.5
		c0.9-1,1.7-2.2,2.2-3.6c0.5-1.4,1.1-2,1.8-2c0.8,0,1.2,0.4,1.2,1.3s-0.4,2-1.2,3.3s-1.8,2.5-2.9,3.5c-2.8,2.4-6.4,3.6-10.8,3.6
		c-4.1,0-7.4-1.3-9.6-3.8c-1.2-1.3-2-2.7-2.4-4.2c-0.4-1.6-0.7-3.7-0.7-6.5v-2.6l0-7.4v-12.6c-0.3,0-0.6,0-0.7,0
		c-0.2,0-0.7,0-1.4,0.1c-0.6,0-1.1,0.1-1.5,0.1c-1.1,0-1.7-0.4-1.7-1.3c0-0.9,0.6-1.3,1.7-1.3c0.5,0,0.9,0,1.1,0l2.6,0.2v-4
		C508.4,480.5,514.5,477.7,519.6,474.7z"/>
	<path d="M557.8,502.1v-4.3c0-3-0.1-4.8-0.1-5.5s-0.3-1.3-0.6-1.8c-0.8-1.3-2.8-2-5.9-2c-4.8,0-8.5,1.5-11.1,4.5
		c-1.1,1.2-1.9,1.8-2.7,1.8c-0.5,0-1-0.2-1.4-0.6c-0.4-0.4-0.6-0.8-0.6-1.3c0-1.5,1.7-3,5.2-4.6c3.3-1.5,7.6-2.3,12.9-2.3
		c8.7,0,14.8,1.3,18.4,3.9c1.5,1.1,2.6,2.4,3,3.9s0.7,3.9,0.7,7.6v14c-0.1,2.6,0,4.5,0.2,5.8s0.8,2.7,1.7,4.2h-19.7v-3.7
		c-2.2,1.5-4.3,2.6-6.4,3.3s-4.2,1.1-6.3,1.1c-3.5,0-6.6-1-9.3-3.1c-3.5-2.7-5.3-6.1-5.3-10.4c0-3.8,1.4-6.8,4.3-9.1
		c3.3-2.7,7.5-4.1,12.4-4.1c2,0,3.8,0.2,5.4,0.5C554,500.5,555.8,501.1,557.8,502.1z M557.8,504.6c-3-1.5-5.2-2.2-6.9-2.2
		c-1.4,0-2.3,0.5-2.7,1.6c-0.2,0.6-0.4,2.3-0.4,5.1v8.4c0,1.9,0.1,3,0.2,3.4c0.2,1.1,1,1.6,2.4,1.6c1.1,0,2.3-0.3,3.6-1
		s2.5-1.5,3.6-2.5L557.8,504.6z"/>
</g>
<g>
	<path class="st1" d="M294.9,362.8C294.9,362.8,294.9,362.8,294.9,362.8c-1.1,4.5-7.2,6.9-14.5,6.3c0.2-1,0-2-0.5-2.8
		c0.8-1,1.1-1.9,0.8-2.1c-0.3-0.2-1.1,0.2-1.9,0.9c-0.5-0.4-1.1-0.7-1.8-0.9c-0.8-0.2-1.6-0.2-2.4,0c-0.4-1.2-1-1.9-1.4-1.9
		c-0.4,0.1-0.5,1.2-0.2,2.6c-0.7,0.5-1.2,1.2-1.4,2.1c-6.8-2.8-11.1-7.8-10.1-12.2c0,0,0,0,0,0c-9.8,0.4-17,3.6-18.3,8.9
		c-0.3,1.2-0.3,2.5,0.1,3.8c1.9-5.2,4.7-8.6,7-8c2.6,0.6,3.5,6.3,2.2,13c1.7-2.8,4-4.5,6-4c3.1,0.7,4.4,6.2,3,12.3
		c-0.1,0.6-0.3,1.2-0.5,1.8c0,0,0.1,0,0.1,0.1c1.7-5.4,5.1-9,8.1-8.3c3.1,0.7,4.5,6,3.3,12c0.2,0,0.4,0.1,0.6,0.1
		c1.7-5.6,5.2-9.4,8.2-8.7c1.8,0.4,3,2.3,3.5,5c1.8-4.2,4.6-6.8,7.1-6.2c2.8,0.7,4.2,5.3,3.3,10.7c0.1,0,0.2,0,0.2,0
		c0.1-1,0.3-2.1,0.6-3.2c1.7-7.1,5.3-12.2,8.1-11.6c1.9,0.4,2.9,3.5,2.8,7.5c0.1-0.3,0.2-0.6,0.3-0.9
		C308.5,373.7,303.5,367.5,294.9,362.8z"/>
	<path class="st1" d="M245.5,337.3c1.9,0.4,2.7,4,2,8.1c0.1,0,0.2,0,0.4,0.1c1-3.9,3.2-6.7,5-6.3c1.1,0.2,1.8,1.5,2.1,3.3
		c1.1-3,2.8-4.9,4.3-4.6c1.7,0.4,2.5,3.5,2,7.3c0,0,0.1,0,0.1,0c0.1-0.7,0.2-1.5,0.4-2.2c1-4.9,3.2-8.7,4.9-8.3
		c1.1,0.2,1.7,2.3,1.7,5.1c0.1-0.2,0.1-0.4,0.2-0.6c0.8-3.7-2.2-7.7-7.4-10.7c0,0,0,0,0,0c-0.6,3.1-4.3,5.1-8.8,4.9
		c0.1-0.7,0-1.4-0.3-2c0.5-0.7,0.7-1.4,0.5-1.5c-0.2-0.1-0.6,0.2-1.2,0.7c-0.3-0.3-0.7-0.4-1.1-0.5c-0.5-0.1-1-0.1-1.4,0.1
		c-0.3-0.8-0.6-1.3-0.8-1.2c-0.3,0.1-0.3,0.9-0.1,1.8c-0.4,0.4-0.7,0.9-0.8,1.5c-4.1-1.7-6.7-4.9-6.1-8c0,0,0,0,0,0
		c-5.9,0.7-10.3,3.1-11,6.9c-0.2,0.9-0.2,1.8,0.1,2.6c1.1-3.6,2.9-6.1,4.2-5.8c1.6,0.3,2.1,4.2,1.3,8.9c1-2,2.4-3.2,3.6-3
		c1.9,0.4,2.7,4.1,1.8,8.4c-0.1,0.4-0.2,0.9-0.3,1.3c0,0,0.1,0,0.1,0C241.6,339.6,243.7,336.9,245.5,337.3z"/>
	<path class="st1" d="M207.7,334.7c-0.2-0.3-0.4-0.5-0.6-0.7c-3.5-4.2-11.4-3.7-20.3,0.4c0,0,0,0,0,0c3,3.5,1.4,9.9-3.4,15.5
		c-0.7-0.8-1.6-1.2-2.6-1.3c-0.4-1.2-0.9-2-1.2-1.9c-0.4,0.1-0.5,1-0.4,2.1c-0.6,0.2-1.2,0.5-1.8,1c-0.6,0.5-1.1,1.2-1.4,1.9
		c-1.2-0.3-2.2-0.3-2.3,0c-0.2,0.4,0.7,1.1,2,1.7c0,0.8,0.3,1.7,0.9,2.3c-6.3,3.9-12.9,4.4-15.8,0.9c0,0,0,0,0,0
		c-5.4,8.1-7.1,15.8-3.6,20c0.8,1,1.9,1.7,3.1,2.2c-3.1-4.6-4.1-8.9-2.4-10.4c2.1-1.8,7.2,0.9,11.8,5.9c-1.3-3.1-1.3-5.8,0.3-7.2
		c2.4-2.1,7.6,0.1,11.7,4.8c0.4,0.5,0.8,1,1.2,1.5c0,0,0.1,0,0.1-0.1c-3.4-4.6-4.3-9.5-2-11.4c2.4-2.1,7.5-0.1,11.6,4.4
		c0.2-0.1,0.3-0.3,0.4-0.4c-3.5-4.6-4.5-9.7-2.2-11.7c1.4-1.2,3.6-1,6.1,0.1c-2.3-3.9-2.8-7.8-0.8-9.4c2.2-1.9,6.8-0.2,10.6,3.7
		c0-0.1,0.1-0.1,0.1-0.2c-0.8-0.7-1.5-1.5-2.2-2.4c-4.7-5.5-6.8-11.5-4.6-13.3C201.4,331.2,204.5,332.2,207.7,334.7z"/>
</g>
<path id="SVGID_x5F_1_x5F_" class="st0" d="M121,435.9l239.5-3.5"/>
<text><textPath  xlink:href="#SVGID_x5F_1_x5F_" startOffset="70.264%">
</textPath>
</text>
<g>
	<path class="st2" d="M192.3,399.7l-0.1-9.9l-0.1-4.4c0-1.2,0.1-1.9,0.3-2.3c0.2-0.4,0.6-0.6,1.2-0.6c0.9,0,1.4,0.7,1.4,2.1l0,2.4
		l-0.1,7.8l-0.1,12.6l0.1,13.1l0.1,9.2c0,0.8-0.1,1.4-0.3,1.7c-0.2,0.3-0.5,0.5-1.1,0.5c-0.5,0-0.9-0.2-1.1-0.5
		c-0.2-0.3-0.3-0.9-0.3-1.8l0-3l0.1-17.6v-6.5l-1.3,0l-6.9-0.2l-15.1,0.2l0,9.7l0.2,19.1h-21.6l0.2-30.5l-0.1-8.1l0-7.4l-0.1-2h21.6
		l0,1.8l-0.2,14.7c2.4,0.1,6.2,0.2,11.4,0.2C185.2,399.9,189.2,399.8,192.3,399.7z"/>
	<path class="st2" d="M227.3,407.7v-4.3c0-3-0.1-4.8-0.1-5.5c-0.1-0.7-0.3-1.3-0.6-1.8c-0.8-1.3-2.8-2-5.9-2
		c-4.8,0-8.5,1.5-11.1,4.5c-1.1,1.2-1.9,1.8-2.7,1.8c-0.5,0-1-0.2-1.4-0.6c-0.4-0.4-0.6-0.8-0.6-1.3c0-1.5,1.7-3,5.2-4.6
		c3.3-1.5,7.6-2.3,12.9-2.3c8.7,0,14.8,1.3,18.4,3.9c1.5,1.1,2.6,2.4,3,3.9c0.5,1.4,0.7,3.9,0.7,7.6v14c-0.1,2.6,0,4.5,0.2,5.8
		s0.8,2.7,1.7,4.2h-19.7v-3.7c-2.2,1.5-4.3,2.6-6.4,3.3c-2.1,0.8-4.2,1.1-6.3,1.1c-3.5,0-6.6-1-9.3-3.1c-3.5-2.7-5.3-6.1-5.3-10.4
		c0-3.8,1.4-6.8,4.3-9.1c3.3-2.7,7.5-4.1,12.4-4.1c2,0,3.8,0.2,5.4,0.5C223.5,406.1,225.3,406.8,227.3,407.7z M227.3,410.3
		c-3-1.5-5.2-2.2-6.9-2.2c-1.4,0-2.3,0.5-2.7,1.6c-0.2,0.6-0.4,2.3-0.4,5.1v8.4c0,1.9,0.1,3,0.2,3.4c0.2,1.1,1,1.6,2.4,1.6
		c1.1,0,2.3-0.3,3.6-1c1.3-0.6,2.5-1.5,3.6-2.5L227.3,410.3z"/>
	<path class="st2" d="M271,392.7v4.9c2.7-1.9,5.4-3.4,8.1-4.4c2.6-1,5.2-1.5,7.7-1.5c3.3,0,6.1,0.8,8.4,2.3c1.7,1.1,2.9,2.6,3.5,4.3
		c0.6,1.7,0.9,4.5,0.9,8.3l-0.1,16.3l0.1,8.2h-17.9l0.1-9.8l0.1-7.2l0-10.8c0-2.5-0.1-4-0.1-4.5c0-0.5-0.1-0.9-0.3-1.3
		c-0.4-0.8-1.2-1.1-2.4-1.1c-1.1,0-2.4,0.3-3.7,1c-1.3,0.7-2.8,1.6-4.3,3l0,1.4l-0.1,9.9l-0.1,7.6l0.1,10.3l0,1.5h-18l0.1-13.8
		l0.1-9.1l-0.1-7.9l-0.1-7.6H271z"/>
	<path class="st2" d="M306.6,424.6c0.5,0,1.1,0.4,1.8,1.1c1.2,1.1,2.8,2.1,5,2.8c2.2,0.8,4.2,1.2,6,1.2c0.9,0,1.5-0.1,2-0.4
		c0.4-0.3,0.7-0.7,0.7-1.3c0-0.6-0.3-1.2-0.9-2s-1.9-2.3-4-4.5c-5-5.4-8.3-9.2-9.8-11.4c-1.5-2.2-2.2-4.3-2.2-6.3
		c0-1.8,0.5-3.4,1.5-5c1-1.6,2.4-3,4.3-4.1c3-1.9,6.5-2.8,10.4-2.8c2.9,0,5.9,0.6,9.1,1.8c2.5,1,3.8,2,3.8,3.1
		c0,0.4-0.1,0.7-0.4,0.9c-0.3,0.3-0.6,0.4-1,0.4c-0.4,0-1.3-0.4-2.5-1.3c-2.5-1.8-5.2-2.7-8.1-2.7c-1,0-1.8,0.2-2.3,0.5
		c-0.5,0.3-0.8,0.8-0.8,1.5c0,0.8,0.5,1.8,1.5,3c1,1.2,2.9,3.3,5.9,6.2c2.9,2.8,4.8,4.7,5.5,5.6c0.8,0.9,1.5,1.9,2.3,3
		c1.2,2,1.9,4.1,1.9,6.4c0,3.6-1.7,6.5-5.2,8.8c-2.9,1.9-6.4,2.8-10.5,2.8c-4.6,0-8.8-1-12.3-3.1c-1.1-0.6-1.8-1.1-2.2-1.5
		c-0.4-0.4-0.6-0.8-0.6-1.3C305.3,425.1,305.7,424.7,306.6,424.6z"/>
	<path class="st2" d="M364.2,463.1c3.7,5.3,8.1,10.7,13.2,16h-24.6c-1.1-1-2.3-2.1-3.4-3.3c-3.4,2.7-7.1,4.1-11.2,4.1
		c-2,0-3.9-0.4-5.8-1.1s-3.3-1.7-4.4-3c-1.8-2.1-2.7-4.6-2.7-7.6c0-2.7,0.8-5.1,2.3-7.2c1.5-2.1,4-4.1,7.3-5.9c-1.6-3-2.6-5.3-3.2-7
		c-0.6-1.7-0.9-3.3-0.9-4.9c0-3.7,1.3-6.7,4-9c3.3-2.9,7.8-4.3,13.5-4.3c4.7,0,8.3,1.1,10.8,3.3c1.7,1.5,2.6,3.4,2.6,5.7
		c0,3.8-2.5,6.9-7.5,9.4c1.3,2.3,4.1,6.7,8.5,13c5.4-5.3,9.5-8,12.3-8c1.2,0,1.8,0.5,1.8,1.6c0,0.5-0.1,0.9-0.4,1.1
		c-0.3,0.2-1,0.3-2.2,0.4c-1.1,0.1-2.5,0.7-3.9,1.7C368.8,459,366.8,460.7,364.2,463.1z M347.7,474.1c-2.2-2.7-4-5-5.4-7.1
		c-1.4-2.1-3.5-5.3-6.2-9.8c-3.1,1.8-5.2,3.6-6.5,5.2c-1.2,1.6-1.9,3.6-1.9,5.8c0,2.6,0.8,4.8,2.4,6.4c0.9,1,2.1,1.7,3.6,2.3
		s3,0.8,4.5,0.8C341.6,477.7,344.7,476.5,347.7,474.1z M352.9,446.4c4.3-2,6.4-4.4,6.4-7.3c0-2.1-1-3.8-2.9-5
		c-2-1.2-4.7-1.8-8.3-1.8c-0.7,0-1.2,0-1.7,0.1C347.3,436,349.5,440.7,352.9,446.4z"/>
	<path class="st2" d="M412.5,502.9c-0.1,7-2.4,12.8-6.7,17.4c-2.4,2.6-5.3,4.6-8.6,6.1s-6.8,2.2-10.3,2.2c-3.1,0-6.1-0.6-9.1-1.8
		s-5.7-2.8-8-4.9c-3-2.7-5.2-6-6.6-9.8c-1.1-3-1.7-6.1-1.7-9.1c0-5.6,1.7-10.6,5.2-15.2c2.4-3.2,5.3-5.6,8.9-7.4s7.3-2.7,11.3-2.7
		c6.9,0,12.9,2.4,17.9,7.1c2.2,2.1,3.3,3.6,3.3,4.5c0,0.3-0.1,0.6-0.4,0.8s-0.5,0.3-0.9,0.3c-0.5,0-1.1-0.4-1.7-1.2
		c-4.7-6.3-10.7-9.4-18.1-9.4c-0.9,0-1.8,0.1-2.7,0.2l-0.2,25l0.2,21.2c0.9,0.2,1.8,0.2,2.7,0.2c2.6,0,5.2-0.4,7.7-1.3
		c6.3-2.2,10.8-6.3,13.5-12.3c1.2-2.5,1.9-5.1,2.1-7.7h-18.4c-1.6,0-2.6-0.1-2.9-0.2s-0.5-0.4-0.5-0.9c0-0.8,0.6-1.1,1.7-1.1l2.1,0
		H412.5z"/>
	<path class="st2" d="M436.3,499.6l-0.1,13.5l0.1,14h-18.1l0-1.9l0-7.2l0.1-12.9l-0.2-14.3l0-2h18v7.2c2.7-2.9,4.6-4.7,5.6-5.4
		c2.4-1.7,4.7-2.6,6.9-2.6c1.3,0,2.4,0.3,3.2,0.8s1.3,1.3,1.3,2.1c0,0.7-0.3,1.2-0.8,1.7c-0.5,0.4-1.2,0.7-1.9,0.7
		c-0.5,0-1-0.1-1.6-0.4c-1-0.5-1.9-0.7-2.6-0.7c-1.7,0-3.3,0.6-4.9,1.7C440,495.1,438.2,497,436.3,499.6z"/>
	<path class="st2" d="M468,509.1V520c0,2.1,0.1,3.4,0.4,4c0.5,1.1,1.7,1.6,3.5,1.6c2.7,0,5.4-0.7,8.1-2.2s5-3.5,6.9-6.2
		c0.6-0.9,1.1-1.4,1.4-1.7s0.6-0.4,0.9-0.4c0.4,0,0.7,0.1,1,0.4s0.4,0.7,0.4,1.1c0,1-0.8,2.3-2.4,4c-2.1,2.1-4.6,3.9-7.7,5.2
		s-6,2-8.9,2c-5,0-9.4-1.7-13.2-5c-2.2-2-3.9-4.4-5.1-7.3c-1.1-2.5-1.6-5.1-1.6-7.6c0-2.4,0.5-4.9,1.4-7.3s2.2-4.6,3.9-6.3
		c1.9-2.1,4.1-3.7,6.8-4.9c2.6-1.1,5.2-1.7,8-1.7c4.3,0,8.3,1.3,11.8,3.8c5.5,4,8.2,9.8,8.2,17.3h-8.2l-10.5,0L468,509.1z
		 M477,506.7v-10.2c0-2.2-0.1-3.5-0.1-3.9s-0.2-0.8-0.5-1.2c-0.7-0.9-2-1.4-4-1.4c-2.1,0-3.4,0.5-3.9,1.6c-0.3,0.6-0.5,2.3-0.5,4.9
		v10.2l4.3,0.1L477,506.7z"/>
	<path class="st2" d="M515.5,476.4l-0.4,11.4l0,1.1c2,0,3.9-0.1,5.6-0.2c0.3,0,0.5,0,0.7,0c1,0,1.5,0.5,1.5,1.4
		c0,0.9-0.5,1.3-1.6,1.3c-0.3,0-0.7,0-1.2-0.1c-1.9-0.1-3.2-0.2-4-0.2h-1l0,6.8l0.1,13.7l0.1,7.3c0,1.7,0.1,2.9,0.4,3.6s0.7,1,1.3,1
		c0.8,0,1.8-0.5,2.7-1.5c0.9-1,1.7-2.2,2.2-3.6c0.5-1.4,1.1-2,1.8-2c0.8,0,1.2,0.4,1.2,1.3s-0.4,2-1.2,3.3s-1.8,2.5-2.9,3.5
		c-2.8,2.4-6.4,3.6-10.8,3.6c-4.1,0-7.4-1.3-9.6-3.8c-1.2-1.3-2-2.7-2.4-4.2c-0.4-1.6-0.7-3.7-0.7-6.5v-2.6l0-7.4v-12.6
		c-0.3,0-0.6,0-0.7,0c-0.2,0-0.7,0-1.4,0.1c-0.6,0-1.1,0.1-1.5,0.1c-1.1,0-1.7-0.4-1.7-1.3c0-0.9,0.6-1.3,1.7-1.3c0.5,0,0.9,0,1.1,0
		l2.6,0.2v-4C504.3,482.1,510.4,479.4,515.5,476.4z"/>
	<path class="st2" d="M553.7,503.7v-4.3c0-3-0.1-4.8-0.1-5.5s-0.3-1.3-0.6-1.8c-0.8-1.3-2.8-2-5.9-2c-4.8,0-8.5,1.5-11.1,4.5
		c-1.1,1.2-1.9,1.8-2.7,1.8c-0.5,0-1-0.2-1.4-0.6c-0.4-0.4-0.6-0.8-0.6-1.3c0-1.5,1.7-3,5.2-4.6c3.3-1.5,7.6-2.3,12.9-2.3
		c8.7,0,14.8,1.3,18.4,3.9c1.5,1.1,2.6,2.4,3,3.9s0.7,3.9,0.7,7.6v14c-0.1,2.6,0,4.5,0.2,5.8s0.8,2.7,1.7,4.2h-19.7v-3.7
		c-2.2,1.5-4.3,2.6-6.4,3.3s-4.2,1.1-6.3,1.1c-3.5,0-6.6-1-9.3-3.1c-3.5-2.7-5.3-6.1-5.3-10.4c0-3.8,1.4-6.8,4.3-9.1
		c3.3-2.7,7.5-4.1,12.4-4.1c2,0,3.8,0.2,5.4,0.5C549.9,502.1,551.7,502.8,553.7,503.7z M553.7,506.3c-3-1.5-5.2-2.2-6.9-2.2
		c-1.4,0-2.3,0.5-2.7,1.6c-0.2,0.6-0.4,2.3-0.4,5.1v8.4c0,1.9,0.1,3,0.2,3.4c0.2,1.1,1,1.6,2.4,1.6c1.1,0,2.3-0.3,3.6-1
		s2.5-1.5,3.6-2.5L553.7,506.3z"/>
</g>
</svg>
