<?xml version="1.0" encoding="utf-8"?>
<!-- Generator: Adobe Illustrator 20.1.0, SVG Export Plug-In . SVG Version: 6.00 Build 0)  -->
<svg version="1.1" id="Layer_1" xmlns="http://www.w3.org/2000/svg" xmlns:xlink="http://www.w3.org/1999/xlink" x="0px" y="0px"
	 viewBox="0 0 708.7 850.4" style="enable-background:new 0 0 708.7 850.4;" xml:space="preserve">
<style type="text/css">
	.st0{fill:none;}
	.st1{stroke:#FFFFFF;stroke-miterlimit:10;}
	.st2{fill:#ED1C24;}
</style>
<rect x="34.9" y="84.1" class="st0" width="556.1" height="587.8"/>
<g>
	<path class="st1" d="M662,573.7C662,573.7,662,573.7,662,573.7c-1.7,18-11.3,28-22.9,25.5c0.4-4,0.1-8-0.7-11.5
		c1.2-4.1,1.8-7.7,1.3-8.7c-0.5-0.9-1.7,0.7-3,3.7c-0.8-1.6-1.8-2.8-2.9-3.5c-1.3-0.8-2.6-0.7-3.7,0.1c-0.7-4.7-1.6-7.8-2.2-7.5
		c-0.7,0.3-0.8,4.9-0.3,10.6c-1,2.1-1.8,5-2.1,8.4c-10.7-11.3-17.6-31.4-15.9-49.2c0,0,0-0.1,0-0.1c-15.4,1.6-26.7,14.4-28.8,35.8
		c-0.5,5-0.4,10.2,0.2,15.4c3-20.8,7.4-34.6,11-32.4c4.1,2.5,5.6,25.5,3.4,52.2c2.7-11.4,6.3-18,9.4-16c4.9,3,7,25.1,4.7,49.4
		c-0.2,2.5-0.5,4.9-0.8,7.3c0.1,0.1,0.1,0.1,0.2,0.2c2.7-21.8,8.1-36.4,12.7-33.6c4.9,3,7.1,24.2,5.1,48.2c0.3,0.2,0.6,0.3,0.9,0.5
		c2.6-22.5,8.2-37.9,12.9-35c2.8,1.7,4.7,9.4,5.5,20.1c2.8-16.8,7.3-27.4,11.2-25.1c4.4,2.7,6.6,21.4,5.2,43.2
		c0.1-0.1,0.2-0.1,0.4-0.2c0.2-4.2,0.5-8.5,1-12.9c2.7-28.4,8.4-49.3,12.7-46.7c2.9,1.8,4.5,13.9,4.4,30.4c0.2-1.2,0.3-2.4,0.4-3.6
		C683.3,617.5,675.4,592.9,662,573.7z"/>
	<path class="st1" d="M584.1,470.9c2.9,1.6,4.3,16,3.1,32.8c0.2,0.1,0.4,0.2,0.6,0.3c1.6-15.8,5-27,7.8-25.5c1.7,0.9,2.8,6,3.3,13.4
		c1.7-11.9,4.4-19.7,6.8-18.5c2.7,1.4,4,14.2,3.1,29.3c0.1-0.1,0.1-0.1,0.2-0.2c0.1-2.9,0.3-5.9,0.6-9c1.6-19.9,5.1-35,7.7-33.6
		c1.8,0.9,2.7,9.2,2.6,20.6c0.1-0.8,0.2-1.7,0.3-2.5c1.2-15-3.5-31.2-11.6-43.2c0,0,0,0,0,0.1c-1,12.5-6.8,20.4-13.8,19.9
		c0.2-2.8,0-5.6-0.4-7.9c0.7-3,1.1-5.5,0.8-6.1c-0.3-0.6-1,0.6-1.8,2.8c-0.5-1-1.1-1.8-1.7-2.1c-0.8-0.4-1.5-0.2-2.2,0.4
		c-0.4-3.2-1-5.2-1.3-5c-0.4,0.3-0.5,3.5-0.2,7.4c-0.6,1.6-1.1,3.6-1.3,6c-6.5-6.7-10.6-19.9-9.6-32.4c0,0,0,0,0-0.1
		c-9.3,2.6-16.2,12.7-17.4,27.7c-0.3,3.5-0.2,7.1,0.1,10.6c1.8-14.7,4.5-24.7,6.7-23.5c2.5,1.3,3.4,17.1,2,35.8
		c1.6-8.2,3.8-13.1,5.7-12.1c2.9,1.6,4.2,16.7,2.8,33.7c-0.1,1.8-0.3,3.5-0.5,5.1c0,0,0.1,0.1,0.1,0.1
		C578,480.2,581.3,469.5,584.1,470.9z"/>
	<path class="st1" d="M524.6,460.3c-0.3-1-0.6-2.1-0.9-3c-5.6-16.7-18-15-32,1.5c0,0,0,0,0,0.1c4.7,14,2.1,39.8-5.4,62.3
		c-1-3.1-2.5-4.9-4.1-5.2c-0.6-4.9-1.4-8.2-2-7.8c-0.6,0.4-0.8,3.9-0.6,8.5c-1,0.7-1.9,2-2.8,3.9c-1,2.2-1.7,4.9-2.2,7.7
		c-1.9-1.3-3.4-1.3-3.7,0.1c-0.3,1.6,1.1,4.4,3.2,6.8c0,3.4,0.5,6.7,1.4,9.4c-9.9,15.6-20.2,17.8-24.9,3.8c0,0,0,0,0-0.1
		c-8.6,32.7-11.2,63.8-5.6,80.5c1.3,3.9,3,6.8,5,8.7c-4.8-18.4-6.5-35.8-3.7-41.9c3.2-7.1,11.3,3.5,18.5,23.7
		c-2-12.4-2-23.5,0.5-28.9c3.8-8.3,12,0.4,18.4,19.4c0.7,2,1.3,4,1.8,6c0.1-0.1,0.1-0.2,0.2-0.3c-5.3-18.4-6.7-38.2-3.1-46.1
		c3.8-8.3,11.8-0.3,18.2,17.8c0.2-0.5,0.5-1.1,0.7-1.6c-5.6-18.7-7.1-39.2-3.5-47.3c2.2-4.7,5.7-4.2,9.6,0.6
		c-3.7-15.7-4.4-31.3-1.3-37.9c3.5-7.6,10.6-1,16.7,14.7c0.1-0.3,0.1-0.6,0.2-0.9c-1.2-2.9-2.4-6.1-3.5-9.6
		c-7.4-22.3-10.7-46.3-7.3-53.8C514.7,446.5,519.5,450.4,524.6,460.3z"/>
</g>
<g>
	<path d="M100.1,308.4l-0.2-39.9l-0.2-17.7c0-4.6,0.2-7.8,0.5-9.4c0.3-1.6,0.9-2.4,1.9-2.4c1.4,0,2.2,2.9,2.2,8.6l-0.1,9.6
		l-0.1,31.5l-0.2,50.6l0.2,52.7l0.1,37c0,3.4-0.1,5.7-0.4,6.9c-0.3,1.2-0.8,1.8-1.7,1.8c-0.9,0-1.4-0.7-1.8-2
		c-0.3-1.3-0.5-3.7-0.5-7.2l0.1-12l0.2-71v-26.3L98,319l-10.8-0.7l-23.8,0.9l0,39.1l0.3,76.8H29.9l0.3-122.8l-0.1-32.4L30,249.9
		l-0.1-8.2h33.9l-0.1,7.4l-0.3,59.4c3.8,0.6,9.8,0.9,18,0.9C89,309.3,95.3,309,100.1,308.4z"/>
	<path d="M155.2,340.7v-17.3c0-12-0.1-19.4-0.2-22.1c-0.1-2.7-0.4-5.2-1-7.4c-1.3-5.3-4.4-7.9-9.3-7.9c-7.5,0-13.4,6-17.5,18.1
		c-1.7,4.9-3.1,7.4-4.2,7.4c-0.9,0-1.6-0.8-2.2-2.3c-0.6-1.5-0.9-3.3-0.9-5.2c0-6,2.7-12.1,8.2-18.4c5.2-6,12-9.1,20.3-9.1
		c13.7,0,23.3,5.3,28.9,15.9c2.4,4.6,4,9.8,4.8,15.6c0.7,5.8,1.1,15.9,1.1,30.5v56.3c-0.1,10.4,0,18.2,0.4,23.5
		c0.4,5.2,1.3,10.9,2.6,16.9h-31v-14.9c-3.4,6-6.8,10.4-10.1,13.5c-3.3,3-6.6,4.5-9.9,4.5c-5.5,0-10.4-4.1-14.7-12.3
		c-5.6-10.8-8.4-24.7-8.4-41.9c0-15.2,2.3-27.5,6.8-36.8c5.2-11.1,11.8-16.6,19.5-16.6c3.2,0,6,0.7,8.4,2.2
		C149.3,334.2,152.1,336.9,155.2,340.7z M155.2,350.9c-4.7-6-8.2-8.9-10.8-8.9c-2.1,0-3.5,2.2-4.2,6.5c-0.4,2.4-0.6,9.2-0.6,20.5
		v33.9c0,7.5,0.1,12,0.3,13.6c0.4,4.3,1.6,6.5,3.8,6.5c1.7,0,3.6-1.3,5.7-3.9c2.1-2.6,4-6,5.7-10.3L155.2,350.9z"/>
	<path d="M224.1,280.4v19.7c4.3-7.8,8.5-13.7,12.7-17.6c4.1-3.9,8.2-5.9,12.1-5.9c5.2,0,9.7,3.1,13.3,9.2c2.7,4.6,4.6,10.4,5.5,17.2
		c0.9,6.9,1.4,18,1.4,33.5l-0.1,65.6l0.2,33H241l0.2-39.4l0.1-28.9l-0.1-43.6c0-10.1-0.1-16.1-0.1-18.1c-0.1-1.9-0.2-3.7-0.5-5.2
		c-0.6-3-1.9-4.5-3.8-4.5c-1.8,0-3.8,1.3-5.9,4c-2.1,2.6-4.4,6.6-6.8,11.9l-0.1,5.8l-0.1,39.8l-0.1,30.5L224,429l0.1,6.1h-28.3
		l0.2-55.5l0.2-36.7l-0.2-31.7l-0.2-30.7H224.1z"/>
	<path d="M280.2,408.9c0.7,0,1.7,1.4,2.8,4.3c1.8,4.5,4.5,8.3,7.9,11.5c3.4,3.2,6.6,4.8,9.5,4.8c1.4,0,2.4-0.6,3.1-1.8
		c0.7-1.2,1-2.9,1-5.2c0-2.3-0.5-5-1.4-8.2c-0.9-3.2-3-9.3-6.3-18.2c-7.9-21.7-13.1-37-15.4-45.8c-2.3-8.8-3.5-17.3-3.5-25.4
		c0-7.1,0.8-13.9,2.4-20.3c1.6-6.5,3.8-12,6.7-16.5c4.8-7.6,10.2-11.3,16.4-11.3c4.5,0,9.3,2.5,14.4,7.4c3.9,3.9,5.9,8.1,5.9,12.6
		c0,1.4-0.2,2.7-0.7,3.8c-0.5,1.1-1,1.7-1.6,1.7c-0.7,0-2-1.7-3.9-5.2c-3.9-7.2-8.2-10.8-12.8-10.8c-1.6,0-2.9,0.7-3.7,2
		c-0.8,1.3-1.2,3.4-1.2,6.1c0,3.2,0.8,7.3,2.3,12.2c1.5,4.9,4.6,13.2,9.3,24.9c4.6,11.4,7.5,18.9,8.7,22.5c1.2,3.5,2.4,7.6,3.6,12.3
		c2,7.9,2.9,16.5,2.9,25.8c0,14.5-2.7,26.3-8.2,35.3c-4.5,7.5-10,11.2-16.6,11.2c-7.3,0-13.8-4.2-19.4-12.5
		c-1.7-2.6-2.8-4.6-3.4-6.2c-0.6-1.6-0.9-3.4-0.9-5.2C278.1,410.8,278.8,409,280.2,408.9z"/>
	<path d="M370.8,564.1c5.8,21.4,12.8,42.9,20.8,64.5h-38.8c-1.8-4-3.6-8.4-5.4-13.3c-5.3,11.1-11.1,16.6-17.6,16.6
		c-3.2,0-6.2-1.5-9.1-4.5s-5.2-7-6.9-12c-2.8-8.3-4.2-18.5-4.2-30.5c0-10.9,1.2-20.5,3.6-29c2.4-8.5,6.2-16.5,11.5-23.9
		c-2.5-12-4.2-21.4-5.1-28.1c-0.9-6.8-1.4-13.3-1.4-19.8c0-14.8,2.1-26.9,6.3-36.3c5.2-11.6,12.3-17.4,21.3-17.4
		c7.3,0,13,4.4,17.1,13.2c2.7,5.9,4.1,13.6,4.1,23.1c0,15.1-3.9,27.7-11.7,37.7c2,9.4,6.5,26.9,13.3,52.3
		c8.5-21.5,15-32.3,19.4-32.3c1.9,0,2.8,2.1,2.8,6.4c0,2.2-0.2,3.6-0.7,4.3c-0.5,0.7-1.6,1.2-3.5,1.7c-1.8,0.5-3.9,2.7-6.2,6.8
		C378.1,547.5,374.9,554.4,370.8,564.1z M344.9,608.2c-3.5-10.8-6.3-20.3-8.6-28.6c-2.3-8.3-5.5-21.5-9.8-39.5
		c-4.8,7.4-8.2,14.4-10.2,21c-2,6.6-2.9,14.4-2.9,23.2c0,10.6,1.3,19.2,3.8,25.8c1.4,3.9,3.3,6.9,5.6,9.2c2.3,2.3,4.7,3.4,7.1,3.4
		C335.2,622.6,340.2,617.8,344.9,608.2z M353.1,496.5c6.7-7.9,10.1-17.8,10.1-29.6c0-8.6-1.5-15.3-4.6-20c-3.1-4.7-7.4-7.1-13-7.1
		c-1,0-1.9,0.1-2.7,0.4C344.3,454.7,347.7,473.5,353.1,496.5z"/>
	<path d="M447,724.4c-0.2,28.1-3.7,51.5-10.5,70.3c-3.8,10.5-8.3,18.6-13.5,24.4c-5.2,5.8-10.6,8.7-16.3,8.7
		c-4.9,0-9.7-2.4-14.4-7.1c-4.7-4.7-8.9-11.3-12.6-19.8c-4.7-11-8.2-24.1-10.4-39.5c-1.8-12.3-2.7-24.5-2.7-36.6
		c0-22.5,2.7-42.9,8.1-61.2c3.7-12.8,8.4-22.7,14.1-30c5.6-7.2,11.6-10.8,17.8-10.8c10.9,0,20.3,9.6,28.1,28.8
		c3.5,8.6,5.3,14.7,5.3,18.3c0,1.2-0.2,2.3-0.6,3.1s-0.9,1.3-1.4,1.3c-0.8,0-1.8-1.7-2.7-5c-7.4-25.2-16.9-37.8-28.5-37.8
		c-1.4,0-2.8,0.2-4.3,0.7l-0.3,100.6l0.3,85.4c1.4,0.7,2.8,1,4.2,1c4.2,0,8.2-1.8,12.1-5.4c9.9-9,17-25.5,21.3-49.5
		c1.8-10.1,2.9-20.4,3.3-30.9h-28.9c-2.5-0.2-4.1-0.5-4.6-1c-0.5-0.5-0.8-1.7-0.8-3.7c0-3,0.9-4.5,2.7-4.5l3.3,0.1H447z"/>
	<path d="M484.4,711.2l-0.1,54.4l0.2,56.4H456l0.1-7.8l0.1-28.9l0.2-52l-0.3-57.8l-0.1-8.2h28.4v29.2c4.2-11.5,7.2-18.8,8.8-21.8
		c3.8-6.9,7.4-10.3,10.8-10.3c2.1,0,3.8,1.1,5.1,3.4c1.3,2.3,2,5.1,2,8.6c0,2.7-0.4,5-1.2,6.8c-0.8,1.8-1.8,2.7-3,2.7
		c-0.8,0-1.6-0.6-2.6-1.7c-1.6-2-3-3-4-3c-2.7,0-5.2,2.3-7.7,6.9C490.2,692.7,487.4,700.4,484.4,711.2z"/>
	<path d="M534.4,749.2v43.9c0,8.5,0.2,13.9,0.6,16.2c0.8,4.3,2.6,6.5,5.5,6.5c4.3,0,8.5-3,12.7-9s7.8-14.3,10.9-24.9
		c1-3.5,1.7-5.7,2.2-6.7c0.4-0.9,0.9-1.4,1.4-1.4c0.6,0,1.1,0.6,1.6,1.8s0.6,2.7,0.6,4.5c0,4-1.2,9.3-3.7,16
		c-3.2,8.6-7.3,15.6-12.1,21c-4.8,5.4-9.5,8.1-14.1,8.1c-7.9,0-14.8-6.8-20.8-20.3c-3.5-7.9-6.2-17.7-8.1-29.3
		c-1.7-10.2-2.5-20.4-2.5-30.6c0-9.8,0.7-19.7,2.2-29.5c1.5-9.9,3.5-18.4,6.1-25.6c3-8.4,6.5-14.9,10.6-19.6c4-4.5,8.2-6.8,12.6-6.8
		c6.8,0,13,5.1,18.5,15.4c8.6,16.1,12.9,39.3,12.8,69.9h-12.9l-16.6,0.1L534.4,749.2z M548.6,739.8v-41.3
		c-0.1-8.9-0.1-14.2-0.2-15.9c-0.1-1.7-0.3-3.4-0.8-4.9c-1-3.7-3.1-5.5-6.3-5.5c-3.2,0-5.3,2.1-6.1,6.4c-0.5,2.5-0.8,9.2-0.8,19.9
		v41.3l6.8,0.6L548.6,739.8z"/>
	<path d="M609.2,617.4l-0.6,45.8l-0.1,4.4c3.2,0,6.1-0.3,8.7-1c0.4-0.1,0.8-0.1,1.2-0.1c1.6,0,2.4,1.9,2.4,5.7
		c0,3.5-0.8,5.3-2.5,5.3c-0.5,0-1.2-0.1-1.9-0.3c-2.9-0.6-5-0.9-6.3-0.9h-1.6l-0.1,27.4l0.2,55l0.1,29.4c0,6.9,0.2,11.7,0.6,14.5
		c0.4,2.7,1.1,4.1,2.1,4.1c1.3,0,2.8-2,4.3-6c1.5-4,2.7-8.8,3.5-14.6c0.8-5.5,1.7-8.2,2.8-8.2c1.3,0,1.9,1.8,1.9,5.4
		c0,3.6-0.6,8.1-1.9,13.4c-1.3,5.3-2.8,10-4.5,14c-4.4,9.7-10,14.6-16.9,14.6c-6.5,0-11.6-5-15.2-15.1c-1.8-5.1-3.1-10.8-3.8-17.1
		c-0.7-6.3-1.1-15-1.1-26.1v-10.6l0.1-29.9v-50.7c-0.5-0.1-0.9-0.1-1.1-0.1c-0.4,0-1.1,0.1-2.2,0.3c-0.9,0.2-1.7,0.3-2.3,0.3
		c-1.8,0-2.7-1.8-2.7-5.3c0-3.4,0.9-5.2,2.6-5.2c0.8,0,1.4,0,1.7,0.1l4,0.7v-16C591.5,640.6,601.1,629.5,609.2,617.4z"/>
	<path d="M669.3,727.6v-17.3c0-12-0.1-19.4-0.2-22.1c-0.1-2.7-0.4-5.2-1-7.4c-1.3-5.3-4.4-7.9-9.3-7.9c-7.5,0-13.4,6-17.5,18.1
		c-1.7,4.9-3.1,7.4-4.2,7.4c-0.9,0-1.6-0.8-2.2-2.3c-0.6-1.5-0.9-3.3-0.9-5.2c0-6,2.7-12.1,8.2-18.4c5.2-6,12-9.1,20.3-9.1
		c13.7,0,23.3,5.3,28.9,15.9c2.4,4.6,4,9.8,4.8,15.6c0.7,5.8,1.1,15.9,1.1,30.5v56.3c-0.1,10.4,0,18.2,0.4,23.5
		c0.4,5.2,1.3,10.9,2.6,16.9h-31v-14.9c-3.4,6-6.8,10.4-10.1,13.5c-3.3,3-6.6,4.5-9.9,4.5c-5.5,0-10.4-4.1-14.7-12.3
		c-5.6-10.8-8.4-24.7-8.4-41.9c0-15.2,2.3-27.5,6.8-36.8c5.2-11.1,11.8-16.6,19.5-16.6c3.2,0,6,0.7,8.4,2.2
		C663.3,721.1,666.1,723.8,669.3,727.6z M669.3,737.9c-4.7-6-8.2-8.9-10.8-8.9c-2.1,0-3.5,2.2-4.2,6.5c-0.4,2.4-0.6,9.2-0.6,20.5
		v33.9c0,7.5,0.1,12,0.3,13.6c0.4,4.3,1.6,6.5,3.8,6.5c1.7,0,3.6-1.3,5.7-3.9c2.1-2.6,4-6,5.7-10.3L669.3,737.9z"/>
</g>
<g>
	<path class="st1" d="M255.3,166.1C255.3,166.2,255.3,166.2,255.3,166.1c-1.7,18-11.3,28-22.9,25.5c0.4-4,0.1-8-0.7-11.5
		c1.2-4.1,1.8-7.7,1.3-8.7c-0.5-0.9-1.7,0.7-3,3.7c-0.8-1.6-1.8-2.8-2.9-3.5c-1.3-0.8-2.6-0.7-3.7,0.1c-0.7-4.7-1.6-7.8-2.2-7.5
		c-0.7,0.3-0.8,4.9-0.3,10.6c-1,2.1-1.8,5-2.1,8.4c-10.7-11.3-17.6-31.4-15.9-49.2c0,0,0-0.1,0-0.1c-15.4,1.6-26.7,14.4-28.8,35.8
		c-0.5,5-0.4,10.2,0.2,15.4c3-20.8,7.4-34.6,11-32.4c4.1,2.5,5.6,25.5,3.4,52.2c2.7-11.4,6.3-18,9.4-16c4.9,3,7,25.1,4.7,49.4
		c-0.2,2.5-0.5,4.9-0.8,7.3c0.1,0.1,0.1,0.1,0.2,0.2c2.7-21.7,8.1-36.4,12.7-33.6c4.9,3,7.1,24.2,5.1,48.2c0.3,0.2,0.6,0.3,0.9,0.5
		c2.6-22.5,8.2-37.9,12.9-35c2.8,1.7,4.7,9.4,5.5,20.1c2.8-16.8,7.3-27.4,11.2-25.1c4.4,2.7,6.6,21.4,5.2,43.2
		c0.1-0.1,0.2-0.1,0.4-0.2c0.2-4.2,0.5-8.5,1-12.9c2.7-28.4,8.4-49.3,12.7-46.7c2.9,1.8,4.5,13.9,4.4,30.4c0.2-1.2,0.3-2.4,0.4-3.6
		C276.6,210,268.8,185.4,255.3,166.1z"/>
	<path class="st1" d="M177.4,63.4c2.9,1.6,4.3,16,3.1,32.8c0.2,0.1,0.4,0.2,0.6,0.3c1.6-15.8,5-27,7.8-25.5c1.7,0.9,2.8,6,3.3,13.4
		c1.7-11.9,4.4-19.7,6.8-18.5c2.7,1.4,4,14.2,3.1,29.3c0.1-0.1,0.1-0.1,0.2-0.2c0.1-2.9,0.3-5.9,0.6-9c1.6-19.9,5.1-35,7.7-33.6
		c1.8,0.9,2.7,9.2,2.6,20.6c0.1-0.8,0.2-1.7,0.3-2.5c1.2-15-3.5-31.2-11.6-43.2c0,0,0,0,0,0.1c-1,12.5-6.8,20.4-13.8,19.9
		c0.2-2.8,0-5.6-0.4-7.9c0.7-3,1.1-5.5,0.8-6.1c-0.3-0.6-1,0.6-1.8,2.8c-0.5-1-1.1-1.8-1.7-2.1c-0.8-0.4-1.5-0.2-2.2,0.4
		c-0.4-3.2-1-5.2-1.3-5c-0.4,0.3-0.5,3.5-0.2,7.4c-0.6,1.6-1.1,3.6-1.3,6c-6.5-6.7-10.6-19.9-9.6-32.4c0,0,0,0,0-0.1
		c-9.3,2.6-16.2,12.7-17.4,27.7c-0.3,3.5-0.2,7.1,0.1,10.6c1.8-14.7,4.5-24.7,6.7-23.5c2.5,1.3,3.4,17.1,2,35.8
		c1.6-8.2,3.8-13.1,5.7-12.1c2.9,1.6,4.2,16.7,2.8,33.7c-0.1,1.8-0.3,3.5-0.5,5.1c0,0,0.1,0.1,0.1,0.1
		C171.4,72.6,174.7,61.9,177.4,63.4z"/>
	<path class="st1" d="M118,52.8c-0.3-1-0.6-2.1-0.9-3c-5.6-16.7-18-15-32,1.5c0,0,0,0,0,0.1c4.7,14,2.1,39.8-5.4,62.3
		c-1-3.1-2.5-4.9-4.1-5.2c-0.6-4.9-1.4-8.2-2-7.8c-0.6,0.4-0.8,3.9-0.6,8.5c-1,0.7-1.9,2-2.8,3.9c-1,2.2-1.7,4.9-2.2,7.7
		c-1.9-1.3-3.4-1.3-3.7,0.1c-0.3,1.6,1.1,4.4,3.2,6.8c0,3.4,0.5,6.7,1.4,9.4c-9.9,15.6-20.2,17.8-24.9,3.8c0,0,0,0,0-0.1
		c-8.6,32.7-11.2,63.8-5.6,80.5c1.3,3.9,3,6.8,5,8.7c-4.8-18.4-6.5-35.8-3.7-41.9c3.2-7.1,11.3,3.5,18.5,23.7
		c-2-12.4-2-23.5,0.5-28.9c3.8-8.3,12,0.4,18.4,19.4c0.7,2,1.3,4,1.8,6c0.1-0.1,0.1-0.2,0.2-0.3c-5.3-18.4-6.7-38.2-3.1-46.1
		c3.8-8.3,11.8-0.3,18.2,17.8c0.2-0.5,0.5-1.1,0.7-1.6c-5.6-18.7-7.1-39.2-3.5-47.3c2.2-4.7,5.7-4.2,9.6,0.6
		c-3.7-15.7-4.4-31.3-1.3-37.9c3.5-7.6,10.6-1,16.7,14.7c0.1-0.3,0.1-0.6,0.2-0.9c-1.2-2.9-2.4-6.1-3.5-9.6
		c-7.4-22.3-10.7-46.3-7.3-53.8C108.1,39,112.8,42.9,118,52.8z"/>
</g>
<path id="SVGID_x5F_1_x5F_" class="st0" d="M-18.5,461l377.1-14.1"/>
<text><textPath  xlink:href="#SVGID_x5F_1_x5F_" startOffset="70.264%">
</textPath>
</text>
<g>
	<path class="st2" d="M93.7,315l-0.2-39.9l-0.2-17.7c0-4.6,0.2-7.8,0.5-9.4c0.3-1.6,0.9-2.4,1.9-2.4c1.4,0,2.2,2.9,2.2,8.6l-0.1,9.6
		l-0.1,31.5l-0.2,50.6l0.2,52.7l0.1,37c0,3.4-0.1,5.7-0.4,6.9c-0.3,1.2-0.8,1.8-1.7,1.8c-0.9,0-1.4-0.7-1.8-2
		c-0.3-1.3-0.5-3.7-0.5-7.2l0.1-12l0.2-71v-26.3l-2.1-0.2l-10.8-0.7L57,325.8l0,39.1l0.3,76.8H23.4l0.3-122.8l-0.1-32.4l-0.1-29.9
		l-0.1-8.2h33.9l-0.1,7.4L57,315c3.8,0.6,9.8,0.9,18,0.9C82.6,315.9,88.8,315.6,93.7,315z"/>
	<path class="st2" d="M148.8,347.3V330c0-12-0.1-19.4-0.2-22.1c-0.1-2.7-0.4-5.2-1-7.4c-1.3-5.3-4.4-7.9-9.3-7.9
		c-7.5,0-13.4,6-17.5,18.1c-1.7,4.9-3.1,7.4-4.2,7.4c-0.9,0-1.6-0.8-2.2-2.3c-0.6-1.5-0.9-3.3-0.9-5.2c0-6,2.7-12.1,8.2-18.4
		c5.2-6,12-9.1,20.3-9.1c13.7,0,23.3,5.3,28.9,15.9c2.4,4.6,4,9.8,4.8,15.6c0.7,5.8,1.1,15.9,1.1,30.5v56.3
		c-0.1,10.4,0,18.2,0.4,23.5c0.4,5.2,1.3,10.9,2.6,16.9h-31v-14.9c-3.4,6-6.8,10.4-10.1,13.5c-3.3,3-6.6,4.5-9.9,4.5
		c-5.5,0-10.4-4.1-14.7-12.3c-5.6-10.8-8.4-24.7-8.4-41.9c0-15.2,2.3-27.5,6.8-36.8c5.2-11.1,11.8-16.6,19.5-16.6
		c3.2,0,6,0.7,8.4,2.2C142.8,340.8,145.6,343.4,148.8,347.3z M148.8,357.5c-4.7-6-8.2-8.9-10.8-8.9c-2.1,0-3.5,2.2-4.2,6.5
		c-0.4,2.4-0.6,9.2-0.6,20.5v33.9c0,7.5,0.1,12,0.3,13.6c0.4,4.3,1.6,6.5,3.8,6.5c1.7,0,3.6-1.3,5.7-3.9c2.1-2.6,4-6,5.7-10.3
		L148.8,357.5z"/>
	<path class="st2" d="M217.6,287v19.7c4.3-7.8,8.5-13.7,12.7-17.6c4.1-3.9,8.2-5.9,12.1-5.9c5.2,0,9.7,3.1,13.3,9.2
		c2.7,4.6,4.6,10.4,5.5,17.2c0.9,6.9,1.4,18,1.4,33.5l-0.1,65.6l0.2,33h-28.1l0.2-39.4l0.1-28.9l-0.1-43.6c0-10.1-0.1-16.1-0.1-18.1
		c-0.1-1.9-0.2-3.7-0.5-5.2c-0.6-3-1.9-4.5-3.8-4.5c-1.8,0-3.8,1.3-5.9,4c-2.1,2.6-4.4,6.6-6.8,11.9l-0.1,5.8l-0.1,39.8l-0.1,30.5
		l0.2,41.7l0.1,6.1h-28.3l0.2-55.5l0.2-36.7l-0.2-31.7l-0.2-30.7H217.6z"/>
	<path class="st2" d="M273.8,415.5c0.7,0,1.7,1.4,2.8,4.3c1.8,4.5,4.5,8.3,7.9,11.5c3.4,3.2,6.6,4.8,9.5,4.8c1.4,0,2.4-0.6,3.1-1.8
		c0.7-1.2,1-2.9,1-5.2c0-2.3-0.5-5-1.4-8.2c-0.9-3.2-3-9.3-6.3-18.2c-7.9-21.7-13.1-37-15.4-45.8c-2.3-8.8-3.5-17.3-3.5-25.4
		c0-7.1,0.8-13.9,2.4-20.3c1.6-6.5,3.8-12,6.7-16.5c4.8-7.6,10.2-11.3,16.4-11.3c4.5,0,9.3,2.5,14.4,7.4c3.9,3.9,5.9,8.1,5.9,12.6
		c0,1.4-0.2,2.7-0.7,3.8c-0.5,1.1-1,1.7-1.6,1.7c-0.7,0-2-1.7-3.9-5.2c-3.9-7.2-8.2-10.8-12.8-10.8c-1.6,0-2.9,0.7-3.7,2
		c-0.8,1.3-1.2,3.4-1.2,6.1c0,3.2,0.8,7.3,2.3,12.2c1.5,4.9,4.6,13.2,9.3,24.9c4.6,11.4,7.5,18.9,8.7,22.5c1.2,3.5,2.4,7.6,3.6,12.3
		c2,7.9,2.9,16.5,2.9,25.8c0,14.5-2.7,26.3-8.2,35.3c-4.5,7.5-10,11.2-16.6,11.2c-7.3,0-13.8-4.2-19.4-12.5
		c-1.7-2.6-2.8-4.6-3.4-6.2c-0.6-1.6-0.9-3.4-0.9-5.2C271.6,417.4,272.3,415.6,273.8,415.5z"/>
	<path class="st2" d="M364.4,570.7c5.8,21.4,12.8,42.9,20.8,64.5h-38.8c-1.8-4-3.6-8.4-5.4-13.3c-5.3,11.1-11.1,16.6-17.6,16.6
		c-3.2,0-6.2-1.5-9.1-4.5c-2.9-3-5.2-7-6.9-12c-2.8-8.3-4.2-18.5-4.2-30.5c0-10.9,1.2-20.5,3.6-29c2.4-8.5,6.2-16.5,11.5-23.9
		c-2.5-12-4.2-21.4-5.1-28.1c-0.9-6.8-1.4-13.3-1.4-19.8c0-14.8,2.1-26.9,6.3-36.3c5.2-11.6,12.3-17.4,21.3-17.4
		c7.3,0,13,4.4,17.1,13.2c2.7,5.9,4.1,13.6,4.1,23.1c0,15.1-3.9,27.7-11.7,37.7c2,9.4,6.5,26.9,13.3,52.3
		c8.5-21.5,15-32.3,19.4-32.3c1.9,0,2.8,2.1,2.8,6.4c0,2.2-0.2,3.6-0.7,4.3c-0.5,0.7-1.6,1.2-3.5,1.7c-1.8,0.5-3.9,2.7-6.2,6.8
		C371.7,554.1,368.4,560.9,364.4,570.7z M338.4,614.7c-3.5-10.8-6.3-20.3-8.6-28.6c-2.3-8.3-5.5-21.5-9.8-39.5
		c-4.8,7.4-8.2,14.4-10.2,21c-2,6.6-2.9,14.4-2.9,23.2c0,10.6,1.3,19.2,3.8,25.8c1.4,3.9,3.3,6.9,5.6,9.2c2.3,2.3,4.7,3.4,7.1,3.4
		C328.8,629.2,333.8,624.4,338.4,614.7z M346.6,503.1c6.7-7.9,10.1-17.8,10.1-29.6c0-8.6-1.5-15.3-4.6-20c-3.1-4.7-7.4-7.1-13-7.1
		c-1,0-1.9,0.1-2.7,0.4C337.8,461.3,341.2,480,346.6,503.1z"/>
	<path class="st2" d="M440.5,731c-0.2,28.1-3.7,51.5-10.5,70.3c-3.8,10.5-8.3,18.6-13.5,24.4s-10.6,8.7-16.3,8.7
		c-4.9,0-9.7-2.4-14.4-7.1c-4.7-4.7-8.9-11.3-12.6-19.8c-4.7-11-8.2-24.1-10.4-39.5c-1.8-12.3-2.7-24.5-2.7-36.6
		c0-22.5,2.7-42.9,8.1-61.2c3.7-12.8,8.4-22.7,14.1-30c5.6-7.2,11.6-10.8,17.8-10.8c10.9,0,20.3,9.6,28.1,28.8
		c3.5,8.6,5.3,14.7,5.3,18.3c0,1.2-0.2,2.3-0.6,3.1s-0.9,1.3-1.4,1.3c-0.8,0-1.8-1.7-2.7-5c-7.4-25.2-16.9-37.8-28.5-37.8
		c-1.4,0-2.8,0.2-4.3,0.7l-0.3,100.6l0.3,85.4c1.4,0.7,2.8,1,4.2,1c4.2,0,8.2-1.8,12.1-5.4c9.9-9,17-25.5,21.3-49.5
		c1.8-10.1,2.9-20.4,3.3-30.9H408c-2.5-0.2-4.1-0.5-4.6-1c-0.5-0.5-0.8-1.7-0.8-3.7c0-3,0.9-4.5,2.7-4.5l3.3,0.1H440.5z"/>
	<path class="st2" d="M477.9,717.8l-0.1,54.4l0.2,56.4h-28.5l0.1-7.8l0.1-28.9l0.2-52l-0.3-57.8l-0.1-8.2H478v29.2
		c4.2-11.5,7.2-18.8,8.8-21.8c3.8-6.9,7.4-10.3,10.8-10.3c2.1,0,3.8,1.1,5.1,3.4s2,5.1,2,8.6c0,2.7-0.4,5-1.2,6.8
		c-0.8,1.8-1.8,2.7-3,2.7c-0.8,0-1.6-0.6-2.6-1.7c-1.6-2-3-3-4-3c-2.7,0-5.2,2.3-7.7,6.9C483.7,699.3,481,707,477.9,717.8z"/>
	<path class="st2" d="M527.9,755.8v43.9c0,8.5,0.2,13.9,0.6,16.2c0.8,4.3,2.6,6.5,5.5,6.5c4.3,0,8.5-3,12.7-9
		c4.2-6,7.8-14.3,10.9-24.9c1-3.5,1.7-5.7,2.2-6.7c0.4-0.9,0.9-1.4,1.4-1.4c0.6,0,1.1,0.6,1.6,1.8s0.6,2.7,0.6,4.5
		c0,4-1.2,9.3-3.7,16c-3.2,8.6-7.3,15.6-12.1,21c-4.8,5.4-9.5,8.1-14.1,8.1c-7.9,0-14.8-6.8-20.8-20.3c-3.5-7.9-6.2-17.7-8.1-29.3
		c-1.7-10.2-2.5-20.4-2.5-30.6c0-9.8,0.7-19.7,2.2-29.5c1.5-9.9,3.5-18.4,6.1-25.6c3-8.4,6.5-14.9,10.6-19.6c4-4.5,8.2-6.8,12.6-6.8
		c6.8,0,13,5.1,18.5,15.4c8.6,16.1,12.9,39.3,12.8,69.9h-12.9l-16.6,0.1L527.9,755.8z M542.1,746.4v-41.3
		c-0.1-8.9-0.1-14.2-0.2-15.9c-0.1-1.7-0.3-3.4-0.8-4.9c-1-3.7-3.1-5.5-6.3-5.5c-3.2,0-5.3,2.1-6.1,6.4c-0.5,2.5-0.8,9.2-0.8,19.9
		v41.3l6.8,0.6L542.1,746.4z"/>
	<path class="st2" d="M602.7,624l-0.6,45.8l-0.1,4.4c3.2,0,6.1-0.3,8.7-1c0.4-0.1,0.8-0.1,1.2-0.1c1.6,0,2.4,1.9,2.4,5.7
		c0,3.5-0.8,5.3-2.5,5.3c-0.5,0-1.2-0.1-1.9-0.3c-2.9-0.6-5-0.9-6.3-0.9H602l-0.1,27.4l0.2,55l0.1,29.4c0,6.9,0.2,11.7,0.6,14.5
		c0.4,2.7,1.1,4.1,2.1,4.1c1.3,0,2.8-2,4.3-6c1.5-4,2.7-8.8,3.5-14.6c0.8-5.5,1.7-8.2,2.8-8.2c1.3,0,1.9,1.8,1.9,5.4
		c0,3.6-0.6,8.1-1.9,13.4c-1.3,5.3-2.8,10-4.5,14c-4.4,9.7-10,14.6-16.9,14.6c-6.5,0-11.6-5-15.2-15.1c-1.8-5.1-3.1-10.8-3.8-17.1
		c-0.7-6.3-1.1-15-1.1-26.1v-10.6l0.1-29.9v-50.7c-0.5-0.1-0.9-0.1-1.1-0.1c-0.4,0-1.1,0.1-2.2,0.3c-0.9,0.2-1.7,0.3-2.3,0.3
		c-1.8,0-2.7-1.8-2.7-5.3c0-3.4,0.9-5.2,2.6-5.2c0.8,0,1.4,0,1.7,0.1l4,0.7v-16C585.1,647.2,594.6,636.1,602.7,624z"/>
	<path class="st2" d="M662.8,734.2V717c0-12-0.1-19.4-0.2-22.1c-0.1-2.7-0.4-5.2-1-7.4c-1.3-5.3-4.4-7.9-9.3-7.9
		c-7.5,0-13.4,6-17.5,18.1c-1.7,4.9-3.1,7.4-4.2,7.4c-0.9,0-1.6-0.8-2.2-2.3c-0.6-1.5-0.9-3.3-0.9-5.2c0-6,2.7-12.1,8.2-18.4
		c5.2-6,12-9.1,20.3-9.1c13.7,0,23.3,5.3,28.9,15.9c2.4,4.6,4,9.8,4.8,15.6s1.1,15.9,1.1,30.5v56.3c-0.1,10.4,0,18.2,0.4,23.5
		s1.3,10.9,2.6,16.9h-31v-14.9c-3.4,6-6.8,10.4-10.1,13.5c-3.3,3-6.6,4.5-9.9,4.5c-5.5,0-10.4-4.1-14.7-12.3
		c-5.6-10.8-8.4-24.7-8.4-41.9c0-15.2,2.3-27.5,6.8-36.8c5.2-11.1,11.8-16.6,19.5-16.6c3.2,0,6,0.7,8.4,2.2
		C656.8,727.7,659.6,730.4,662.8,734.2z M662.8,744.4c-4.7-6-8.2-8.9-10.8-8.9c-2.1,0-3.5,2.2-4.2,6.5c-0.4,2.4-0.6,9.2-0.6,20.5
		v33.9c0,7.5,0.1,12,0.3,13.6c0.4,4.3,1.6,6.5,3.8,6.5c1.7,0,3.6-1.3,5.7-3.9c2.1-2.6,4-6,5.7-10.3L662.8,744.4z"/>
</g>
</svg>
